<svg xmlns="http://www.w3.org/2000/svg" width="64" height="64" fill="none" viewBox="0 0 64 64"><rect width="2.591" height="4" fill="#3B3B3B" rx="1.295" transform="translate(11.7727 42)"/><rect width="2.591" height="5" fill="#3B3B3B" rx="1.295" transform="translate(7.88636 41)"/><rect width="2.591" height="5" fill="#3B3B3B" rx="1.295" transform="translate(4 41)"/><rect width="2.591" height="5" fill="#3B3B3B" rx="1.295" transform="translate(15.6591 41)"/><rect width="2.591" height="5" fill="#3B3B3B" rx="1.295" transform="translate(19.5455 41)"/><rect width="2.591" height="5" fill="#3B3B3B" rx="1.295" transform="translate(23.4318 41)"/><rect width="2.591" height="5" fill="#3B3B3B" rx="1.295" transform="translate(27.3182 41)"/><rect width="2.591" height="5" fill="#3B3B3B" rx="1.295" transform="translate(31.2045 41)"/><rect width="2.591" height="5" fill="#3B3B3B" rx="1.295" transform="translate(35.0909 41)"/><rect width="2.591" height="5" fill="#3B3B3B" rx="1.295" transform="translate(38.9773 41)"/><rect width="2.591" height="5" fill="#3B3B3B" rx="1.295" transform="translate(42.8636 41)"/><rect width="2.591" height="5" fill="#3B3B3B" rx="1.295" transform="translate(46.75 41)"/><rect width="2.591" height="5" fill="#3B3B3B" rx="1.295" transform="translate(50.6364 41)"/><rect width="2.591" height="5" fill="#3B3B3B" rx="1.295" transform="translate(54.5227 41)"/><rect width="2.591" height="5" fill="#3B3B3B" rx="1.295" transform="translate(58.4091 41)"/><path fill="#6D5543" stroke="#000" stroke-width="3" d="M55.9248 4.50609C33.9812 -3.28483 13.1602 0.598501 2.91722 4.4501C1.10868 5.13015 0 6.90576 0 8.83793C0 11.5949 2.23499 13.8299 4.992 13.8299H54.1283C56.8189 13.8299 59 11.6488 59 8.95826C59 6.97272 57.7959 5.17042 55.9248 4.50609Z" transform="translate(3 28)"/><rect width="37.345" height="2.585" fill="#000" rx="1.293" transform="translate(13.8923 35.3673)"/></svg>